<?xml version="1.0" encoding="utf-8"?>
<!-- Generator: Adobe Illustrator 12.0.0, SVG Export Plug-In . SVG Version: 6.00 Build 51448)  -->
<!DOCTYPE svg PUBLIC "-//W3C//DTD SVG 1.1//EN" "http://www.w3.org/Graphics/SVG/1.1/DTD/svg11.dtd" [
	<!ENTITY ns_svg "http://www.w3.org/2000/svg">
	<!ENTITY ns_xlink "http://www.w3.org/1999/xlink">
]>
<svg  version="1.1" id="svg2" xmlns:svg="http://www.w3.org/2000/svg" xmlns="&ns_svg;" xmlns:xlink="&ns_xlink;"
	 width="595" height="148" viewBox="0 -0.142 595 148" overflow="visible" enable-background="new 0 -0.142 595 148"
	 xml:space="preserve">
<g id="g6">
	<g id="g8">
		<rect id="rect10" y="125.342" width="99.98" height="16.572"/>
	</g>
	<g id="g12">
		<path id="path14" d="M155.029,79.443V62.861c-14.727-1.309-29.453-6.084-29.453-22.842c0-18.32,18.066-23.789,34.287-23.789
			c16.738,0,29.941,6.113,34.424,19.336c0.977,2.852,1.484,6.172,1.592,7.715c-0.02-0.01,18.018-0.068,18.018-0.068
			c0-2.031-0.596-8.115-2.949-14.404C203.877,9.902,184.014,0,160.273,0c-22.852,0-52.471,10.039-52.471,39.824
			C107.803,69.492,131.25,78.721,155.029,79.443"/>
	</g>
	<g id="g16">
		<polygon id="polygon18" points="226.299,142.148 242.93,142.148 242.959,3.398 226.309,3.398 		"/>
	</g>
	<g id="g20">
		<rect id="rect22" y="63.213" width="99.98" height="16.573"/>
	</g>
	<g id="g24">
		<rect id="rect26" y="3.398" width="99.98" height="16.572"/>
	</g>
	<g id="g28">
		<path id="path30" d="M290.029,3.398h-32.617v16.563c0,0,21.719,0.039,32.617,0.195c12.745,0.195,21.807,9.59,21.807,21.387
			c0,11.973-10.801,21.387-21.787,21.543c-11.416,0.166-32.607,0.137-32.607,0.137l-0.029,16.543h32.529
			c20.889,0.459,38.506-17.012,38.506-38.184C328.447,20.469,312.031,3.008,290.029,3.398"/>
	</g>
	<g id="g32">
		<rect id="rect34" x="531.816" y="33.867" width="16.396" height="108.281"/>
	</g>
	<g id="g36">
		<rect id="rect38" x="485.459" y="3.398" width="109.102" height="16.572"/>
	</g>
	<g id="g40">
		<rect id="rect42" x="459.824" y="3.398" width="16.572" height="138.75"/>
	</g>
	<g id="g44">
		<polygon id="polygon46" points="420.732,90.605 401.172,90.605 406.699,99.463 433.545,142.422 453.115,142.422 426.27,99.463 		
			"/>
	</g>
	<g id="g48">
		<rect id="rect50" x="338.281" y="3.398" width="16.571" height="138.75"/>
	</g>
	<g id="g52">
		<path id="path54" d="M446.436,41.592c0-21.104-16.416-38.564-38.428-38.193h-38.662V19.98c0,0,27.656,0.02,38.662,0.195
			c12.744,0.195,21.808,9.59,21.808,21.377c0,11.963-10.802,21.377-21.777,21.533c-11.426,0.176-38.711,0.166-38.711,0.166
			l0.02,16.542h38.574C428.809,80.234,446.436,62.773,446.436,41.592"/>
	</g>
	<g id="g56">
		<path id="path58" d="M217.773,99.454c-3.018-24.513-25.215-33.331-48.184-35.42l-0.078,16.572
			c14.102,1.437,28.223,5.215,31.221,18.856l0,0c0.381,1.729,0.586,3.623,0.586,5.674c0,18.359-20.068,25.294-37.803,25.294
			c-19.746,0-31.23-4.845-37.139-20.234c-1.367-3.573-1.855-7.813-2.021-10.731c-0.068-1.144-0.098-2.08-0.098-2.726h-18.145
			c0,0.731,0.02,1.66,0.059,2.726c0.166,3.809,0.732,9.424,2.373,14.424c7.764,23.867,27.285,33.516,54.932,33.516
			c29.346,0,54.648-14.17,54.648-42.07c0-2.061-0.127-4.004-0.352-5.869"/>
	</g>
</g>
</svg>
