<?xml version="1.0" standalone="no"?>
<!DOCTYPE svg PUBLIC "-//W3C//DTD SVG 20010904//EN"
 "http://www.w3.org/TR/2001/REC-SVG-20010904/DTD/svg10.dtd">
<svg version="1.0" xmlns="http://www.w3.org/2000/svg"
 width="414.000000pt" height="372.000000pt" viewBox="0 0 414.000000 372.000000"
 preserveAspectRatio="xMidYMid meet">

<g transform="translate(0.000000,372.000000) scale(0.100000,-0.100000)"
fill="#000000" stroke="none">
<path d="M2700 1321 c-14 -4 -63 -6 -110 -4 -59 3 -93 0 -110 -10 -21 -11 -30
-11 -59 0 -26 11 -77 13 -235 9 -110 -3 -217 -5 -236 -4 -19 1 -105 2 -190 2
-142 1 -159 -1 -205 -22 -27 -13 -62 -34 -76 -48 l-25 -24 -25 26 c-50 54 -94
68 -224 72 -141 5 -191 -6 -242 -51 -52 -45 -73 -98 -73 -182 0 -69 23 -143
49 -159 7 -5 11 -43 11 -101 0 -85 2 -97 24 -122 l24 -28 164 0 c131 0 169 3
193 16 28 15 32 15 60 -2 22 -14 49 -19 102 -19 62 0 75 3 101 25 17 14 33 39
37 55 5 25 12 30 36 30 25 0 32 -6 45 -40 25 -62 47 -69 224 -69 166 0 197 7
218 53 15 33 24 33 64 -3 59 -51 62 -51 320 -50 255 1 285 5 308 48 5 11 10
33 10 50 0 16 4 32 8 35 5 3 37 -24 73 -60 69 -70 113 -90 165 -75 16 5 73 6
125 3 96 -5 96 -4 130 26 l34 30 3 254 c2 240 2 255 -18 286 -11 18 -31 37
-44 42 -31 11 -311 11 -342 0 -31 -12 -64 -66 -64 -105 0 -29 -1 -28 -68 38
-79 79 -120 96 -182 78z m-1364 -122 c58 -36 69 -68 69 -204 0 -102 -3 -125
-20 -154 -36 -60 -72 -72 -215 -69 l-125 3 0 40 0 40 116 5 c128 6 149 14 149
61 l0 29 -126 0 -126 0 -34 34 c-32 32 -34 38 -34 99 0 56 4 70 26 96 35 42
71 50 188 45 77 -3 105 -8 132 -25z m567 12 c15 -12 17 -41 17 -227 l0 -214
-45 0 -45 0 0 55 0 55 -135 0 -135 0 0 -55 0 -55 -45 0 -45 0 0 140 c0 154 9
192 58 243 57 60 114 76 263 74 65 -1 101 -6 112 -16z m518 -19 c26 -29 29
-39 29 -105 0 -88 -22 -131 -80 -155 -22 -10 -40 -20 -40 -24 0 -3 31 -33 69
-65 38 -32 70 -61 70 -65 1 -5 -29 -8 -65 -8 l-67 0 -82 70 c-64 55 -89 70
-114 70 -32 0 -32 0 -29 48 l3 47 105 3 c124 3 140 12 140 79 l0 43 -135 0
-135 0 0 -180 0 -180 -45 0 -45 0 2 217 3 217 25 14 c19 9 69 12 193 10 l169
-3 29 -33z m187 -194 l2 -228 -45 0 -45 0 0 223 c0 123 3 227 7 231 4 4 23 6
43 4 l35 -3 3 -227z m296 82 l145 -150 3 147 3 148 45 0 45 0 3 -214 c2 -189
0 -216 -14 -232 -10 -11 -25 -19 -35 -19 -9 0 -83 68 -163 152 l-146 152 0
-147 0 -147 -50 0 -50 0 0 212 c0 183 2 214 17 230 9 10 24 18 33 18 10 0 83
-68 164 -150z m414 -83 l2 -228 -47 3 -48 3 -3 205 c-1 113 0 215 3 228 5 20
11 23 48 20 l42 -3 3 -228z"/>
<path d="M1087 1123 c-14 -13 -7 -71 9 -77 9 -3 60 -6 115 -6 l99 0 0 29 c0
47 -30 61 -131 61 -47 0 -89 -3 -92 -7z"/>
<path d="M1633 1115 c-40 -17 -73 -69 -73 -112 l0 -33 135 0 135 0 0 80 0 80
-82 0 c-48 -1 -97 -7 -115 -15z"/>
</g>
</svg>
